{
    "asset" : {
        "generator" : "Khronos glTF Blender I/O v1.7.33",
        "version" : "2.0"
    },
    "scene" : 0,
    "scenes" : [
        {
            "name" : "Scene",
            "nodes" : [
                0
            ]
        }
    ],
    "nodes" : [
        {
            "mesh" : 0,
            "name" : "Smart TV",
            "rotation" : [
                0.7071068286895752,
                0,
                0,
                0.7071068286895752
            ],
            "scale" : [
                0.0009905941551551223,
                0.0009905941551551223,
                0.0009905941551551223
            ],
            "translation" : [
                -0.04255861043930054,
                0.19034771621227264,
                0.005804229527711868
            ]
        }
    ],
    "materials" : [
        {
            "doubleSided" : true,
            "name" : "01___Default2",
            "pbrMetallicRoughness" : {
                "baseColorFactor" : [
                    0.06669999659061432,
                    0.06669999659061432,
                    0.06669999659061432,
                    1
                ],
                "metallicFactor" : 0,
                "roughnessFactor" : 0.8945907354354858
            }
        },
        {
            "doubleSided" : true,
            "name" : "02___Default",
            "pbrMetallicRoughness" : {
                "baseColorFactor" : [
                    0.019600000232458115,
                    0.019600000232458115,
                    0.019600000232458115,
                    1
                ],
                "metallicFactor" : 0,
                "roughnessFactor" : 0.6666666865348816
            }
        },
        {
            "doubleSided" : true,
            "name" : "04___Default",
            "pbrMetallicRoughness" : {
                "baseColorFactor" : [
                    0.5881999731063843,
                    0.5881999731063843,
                    0.5881999731063843,
                    1
                ],
                "metallicFactor" : 0,
                "roughnessFactor" : 0.6666666865348816
            }
        },
        {
            "doubleSided" : true,
            "name" : "03___Default",
            "pbrMetallicRoughness" : {
                "baseColorFactor" : [
                    0.027499999850988388,
                    0.027499999850988388,
                    0.027499999850988388,
                    1
                ],
                "metallicFactor" : 0,
                "roughnessFactor" : 0.6666666865348816
            }
        },
        {
            "doubleSided" : true,
            "name" : "05___Default",
            "pbrMetallicRoughness" : {
                "baseColorFactor" : [
                    0.09799999743700027,
                    0.09799999743700027,
                    0.09799999743700027,
                    1
                ],
                "metallicFactor" : 0,
                "roughnessFactor" : 0.8547033667564392
            }
        }
    ],
    "meshes" : [
        {
            "name" : "Smart TV",
            "primitives" : [
                {
                    "attributes" : {
                        "POSITION" : 0,
                        "NORMAL" : 1,
                        "TEXCOORD_0" : 2
                    },
                    "indices" : 3,
                    "material" : 0
                },
                {
                    "attributes" : {
                        "POSITION" : 4,
                        "NORMAL" : 5,
                        "TEXCOORD_0" : 6
                    },
                    "indices" : 7,
                    "material" : 1
                },
                {
                    "attributes" : {
                        "POSITION" : 8,
                        "NORMAL" : 9,
                        "TEXCOORD_0" : 10
                    },
                    "indices" : 11,
                    "material" : 2
                },
                {
                    "attributes" : {
                        "POSITION" : 12,
                        "NORMAL" : 13,
                        "TEXCOORD_0" : 14
                    },
                    "indices" : 15,
                    "material" : 3
                },
                {
                    "attributes" : {
                        "POSITION" : 16,
                        "NORMAL" : 17,
                        "TEXCOORD_0" : 18
                    },
                    "indices" : 19,
                    "material" : 4
                }
            ]
        }
    ],
    "accessors" : [
        {
            "bufferView" : 0,
            "componentType" : 5126,
            "count" : 140,
            "max" : [
                541.5706787109375,
                17.305267333984375,
                135.064697265625
            ],
            "min" : [
                -539.9476318359375,
                17.304466247558594,
                -477.00048828125
            ],
            "type" : "VEC3"
        },
        {
            "bufferView" : 1,
            "componentType" : 5126,
            "count" : 140,
            "type" : "VEC3"
        },
        {
            "bufferView" : 2,
            "componentType" : 5126,
            "count" : 140,
            "type" : "VEC2"
        },
        {
            "bufferView" : 3,
            "componentType" : 5123,
            "count" : 204,
            "type" : "SCALAR"
        },
        {
            "bufferView" : 4,
            "componentType" : 5126,
            "count" : 12396,
            "max" : [
                552.0712280273438,
                17.877567291259766,
                161.7264862060547
            ],
            "min" : [
                -550.447998046875,
                -39.79063415527344,
                -482.4791259765625
            ],
            "type" : "VEC3"
        },
        {
            "bufferView" : 5,
            "componentType" : 5126,
            "count" : 12396,
            "type" : "VEC3"
        },
        {
            "bufferView" : 6,
            "componentType" : 5126,
            "count" : 12396,
            "type" : "VEC2"
        },
        {
            "bufferView" : 7,
            "componentType" : 5123,
            "count" : 39177,
            "type" : "SCALAR"
        },
        {
            "bufferView" : 8,
            "componentType" : 5126,
            "count" : 4559,
            "max" : [
                552.0713500976562,
                80.14396667480469,
                191.4399871826172
            ],
            "min" : [
                -550.447998046875,
                -89.82122802734375,
                -482.4791259765625
            ],
            "type" : "VEC3"
        },
        {
            "bufferView" : 9,
            "componentType" : 5126,
            "count" : 4559,
            "type" : "VEC3"
        },
        {
            "bufferView" : 10,
            "componentType" : 5126,
            "count" : 4559,
            "type" : "VEC2"
        },
        {
            "bufferView" : 11,
            "componentType" : 5123,
            "count" : 20007,
            "type" : "SCALAR"
        },
        {
            "bufferView" : 12,
            "componentType" : 5126,
            "count" : 1345,
            "max" : [
                109.29095458984375,
                12.05706787109375,
                161.70059204101562
            ],
            "min" : [
                -107.91064453125,
                3.741666793823242,
                153.37158203125
            ],
            "type" : "VEC3"
        },
        {
            "bufferView" : 13,
            "componentType" : 5126,
            "count" : 1345,
            "type" : "VEC3"
        },
        {
            "bufferView" : 14,
            "componentType" : 5126,
            "count" : 1345,
            "type" : "VEC2"
        },
        {
            "bufferView" : 15,
            "componentType" : 5123,
            "count" : 7392,
            "type" : "SCALAR"
        },
        {
            "bufferView" : 16,
            "componentType" : 5126,
            "count" : 1628,
            "max" : [
                265.4022521972656,
                76.27786254882812,
                192.20089721679688
            ],
            "min" : [
                -263.821533203125,
                -91.11163330078125,
                183.4431915283203
            ],
            "type" : "VEC3"
        },
        {
            "bufferView" : 17,
            "componentType" : 5126,
            "count" : 1628,
            "type" : "VEC3"
        },
        {
            "bufferView" : 18,
            "componentType" : 5126,
            "count" : 1628,
            "type" : "VEC2"
        },
        {
            "bufferView" : 19,
            "componentType" : 5123,
            "count" : 8124,
            "type" : "SCALAR"
        }
    ],
    "bufferViews" : [
        {
            "buffer" : 0,
            "byteLength" : 1680,
            "byteOffset" : 0
        },
        {
            "buffer" : 0,
            "byteLength" : 1680,
            "byteOffset" : 1680
        },
        {
            "buffer" : 0,
            "byteLength" : 1120,
            "byteOffset" : 3360
        },
        {
            "buffer" : 0,
            "byteLength" : 408,
            "byteOffset" : 4480
        },
        {
            "buffer" : 0,
            "byteLength" : 148752,
            "byteOffset" : 4888
        },
        {
            "buffer" : 0,
            "byteLength" : 148752,
            "byteOffset" : 153640
        },
        {
            "buffer" : 0,
            "byteLength" : 99168,
            "byteOffset" : 302392
        },
        {
            "buffer" : 0,
            "byteLength" : 78354,
            "byteOffset" : 401560
        },
        {
            "buffer" : 0,
            "byteLength" : 54708,
            "byteOffset" : 479916
        },
        {
            "buffer" : 0,
            "byteLength" : 54708,
            "byteOffset" : 534624
        },
        {
            "buffer" : 0,
            "byteLength" : 36472,
            "byteOffset" : 589332
        },
        {
            "buffer" : 0,
            "byteLength" : 40014,
            "byteOffset" : 625804
        },
        {
            "buffer" : 0,
            "byteLength" : 16140,
            "byteOffset" : 665820
        },
        {
            "buffer" : 0,
            "byteLength" : 16140,
            "byteOffset" : 681960
        },
        {
            "buffer" : 0,
            "byteLength" : 10760,
            "byteOffset" : 698100
        },
        {
            "buffer" : 0,
            "byteLength" : 14784,
            "byteOffset" : 708860
        },
        {
            "buffer" : 0,
            "byteLength" : 19536,
            "byteOffset" : 723644
        },
        {
            "buffer" : 0,
            "byteLength" : 19536,
            "byteOffset" : 743180
        },
        {
            "buffer" : 0,
            "byteLength" : 13024,
            "byteOffset" : 762716
        },
        {
            "buffer" : 0,
            "byteLength" : 16248,
            "byteOffset" : 775740
        }
    ],
    "buffers" : [
        {
            "byteLength" : 791988,
            "uri" : "data:application/octet-stream;base64,"
        }
    ]
}
